<svg viewBox="0 0 16 16"
  xmlns="http://www.w3.org/2000/svg"
  xmlns:xlink="http://www.w3.org/1999/xlink">
  <path id="vf-close" d="M13.748 3.32a.773.773 0 0 0-1.093-1.094l-4.389 4.39a.363.363 0 0 1-.514 0L3.368 2.23a.779.779 0 0 0-1.101 0l-.039.038a.779.779 0 0 0 0 1.101l4.385 4.385a.363.363 0 0 1 0 .514l-4.37 4.37a.773.773 0 1 0 1.092 1.093l4.37-4.37a.363.363 0 0 1 .514 0l4.413 4.412a.779.779 0 0 0 1.101 0l.039-.038a.779.779 0 0 0 0-1.101L9.359 8.222a.363.363 0 0 1 0-.514l4.389-4.389z" fill="currentColor"/>
</svg>
