<svg width="24" height="24" viewBox="0 0 24 24" xmlns="http://www.w3.org/2000/svg">
  <path fill-rule="evenodd" clip-rule="evenodd"
    d="M8.56574 7.41994C8.56574 5.53075 10.1046 4 12.0007 4C13.8967 4 15.4357 5.53075 15.4357 7.41994V11.6195C15.4357 13.5087 13.8967 15.0395 12.0007 15.0395C10.1046 15.0395 8.56574 13.5087 8.56574 11.6195V7.41994ZM12.0007 5.5C10.9356 5.5 10.0718 6.35999 10.0718 7.41994V11.6195C10.0718 12.6795 10.9356 13.5395 12.0007 13.5395C13.0658 13.5395 13.9296 12.6795 13.9296 11.6195V7.41994C13.9296 6.35999 13.0658 5.5 12.0007 5.5Z"
    fill="currentColor" />
  <path
    d="M6.25305 10.4868C6.66895 10.4868 7.0061 10.8225 7.0061 11.2368C7.0061 13.9837 9.24194 16.2105 12 16.2105C14.7581 16.2105 16.9939 13.9837 16.9939 11.2368C16.9939 10.8225 17.3311 10.4868 17.747 10.4868C18.1628 10.4868 18.5 10.8225 18.5 11.2368C18.5 14.5584 15.9882 17.2957 12.7531 17.6675V19.25C12.7531 19.6642 12.4159 20 12 20C11.5841 20 11.247 19.6642 11.247 19.25V17.6675C8.01185 17.2958 5.5 14.5584 5.5 11.2368C5.5 10.8225 5.83715 10.4868 6.25305 10.4868Z"
    fill="currentColor" />
</svg>
