<?xml version="1.0" encoding="UTF-8"?>
<svg viewBox="0 0 16 16" version="1.1" xmlns="http://www.w3.org/2000/svg"
  xmlns:xlink="http://www.w3.org/1999/xlink">
  <g transform="translate(0.000000, 1.000000)">
    <path
      d="M7.9424,6.70939637 C7.9424,8.53419637 7.8064,10.6965964 7.7752,11.7325964 C7.752,12.5109964 7.344,12.9493964 6.5056,12.3117964 C5.2616,11.3645964 4.0064,10.4333964 3.548,10.0933964 C3.0904,9.75259637 2.6424,9.37819637 1.6088,9.37819637 C0.576,9.37819637 0.1568,8.73979637 0.0952,8.15579637 C0.0336,7.57259637 0,6.82059637 0,6.70939637 C0,6.59739637 0.0336,5.84539637 0.0952,5.26219637 C0.1568,4.67819637 0.576,4.04059637 1.6088,4.04059637 C2.6424,4.04059637 3.0904,3.66539637 3.548,3.32459637 C4.0064,2.98379637 5.2616,2.05339637 6.5056,1.10619637 C7.344,0.468596368 7.752,0.906996368 7.7752,1.68539637 C7.8064,2.72139637 7.9424,4.88299637 7.9424,6.70939637 Z M12.2048,13.3061964 C11.9296,13.0317964 11.9168,12.5685964 12.1896,12.2925964 C13.6128,10.8517964 14.4936,8.87499637 14.4936,6.68939637 C14.4936,4.52219637 13.6272,2.55979637 12.224,1.12219637 C11.9544,0.846196368 11.9192,0.404596368 12.1728,0.113396368 C12.4512,-0.206603632 12.9368,-0.215403632 13.2288,0.0813963678 C14.9048,1.78299637 15.9432,4.11339637 15.9432,6.68939637 C15.9432,9.26779637 14.904,11.5997964 13.2264,13.3005964 C12.9456,13.5853964 12.4872,13.5885964 12.2048,13.3061964 Z M9.9296,11.0317964 C9.6584,10.7597964 9.6552,10.3157964 9.924,10.0421964 C10.7744,9.17899637 11.3008,7.99739637 11.3008,6.68939637 C11.3008,5.38299637 10.7752,4.20219637 9.9264,3.33979637 C9.6576,3.06619637 9.6616,2.62219637 9.9328,2.35019637 C10.2088,2.07499637 10.6568,2.08139637 10.9296,2.35979637 C12.0248,3.47579637 12.7008,5.00299637 12.7008,6.68939637 C12.7008,8.37819637 12.0232,9.90699637 10.9272,11.0229964 C10.6536,11.3005964 10.2056,11.3069964 9.9296,11.0317964 Z"
      fill="currentColor"></path>
  </g>
</svg>