<svg viewBox="0 0 24 24" fill="none" xmlns="http://www.w3.org/2000/svg">
  <g transform="scale(1.5)" transform-origin="center">
    <path fill-rule="evenodd" clip-rule="evenodd"
      d="M12.3684 7.43506C12.3684 6.14737 10.861 5.44631 9.87746 6.28053L7.05067 8.67538H5.51316C4.67768 8.67538 4 9.35306 4 10.1885V13.8135C4 14.649 4.67768 15.3267 5.51316 15.3267H7.05067L9.87746 17.7215C10.8614 18.5554 12.3684 17.8552 12.3684 16.567V7.43506ZM10.8477 7.42451C10.85 7.4225 10.853 7.4204 10.853 7.4204C10.853 7.4204 10.8573 7.42128 10.8607 7.42286C10.8645 7.42461 10.868 7.4275 10.868 7.4275C10.868 7.4275 10.8684 7.43145 10.8684 7.43506V16.567C10.8684 16.5707 10.868 16.5748 10.868 16.5748C10.868 16.5748 10.8645 16.5776 10.8609 16.5793C10.8574 16.5809 10.8532 16.5817 10.8532 16.5817C10.8532 16.5817 10.8518 16.5807 10.8501 16.5794L10.8471 16.5771L7.81046 14.0044C7.675 13.8897 7.50321 13.8267 7.32566 13.8267H5.51316C5.51013 13.8267 5.50849 13.826 5.50849 13.826C5.50849 13.826 5.50574 13.8246 5.50394 13.8228C5.50213 13.821 5.5007 13.8182 5.5007 13.8182C5.5007 13.8182 5.5 13.8165 5.5 13.8135V10.1885C5.5 10.1855 5.5007 10.1839 5.5007 10.1839C5.5007 10.1839 5.50213 10.1811 5.50394 10.1793C5.50574 10.1775 5.5085 10.1761 5.5085 10.1761C5.5085 10.1761 5.51015 10.1754 5.51316 10.1754H7.32566C7.50321 10.1754 7.675 10.1124 7.81046 9.99762L10.8477 7.42451ZM16.1714 9.65967C15.8785 9.36678 15.4036 9.36678 15.1107 9.65967C14.8178 9.95257 14.8178 10.4274 15.1107 10.7203L16.3849 11.9945L15.1107 13.2686C14.8178 13.5615 14.8178 14.0364 15.1107 14.3293C15.4036 14.6222 15.8785 14.6222 16.1714 14.3293L17.4455 13.0551L18.7197 14.3293C19.0126 14.6222 19.4874 14.6222 19.7803 14.3293C20.0732 14.0364 20.0732 13.5615 19.7803 13.2686L18.5062 11.9945L19.7803 10.7203C20.0732 10.4274 20.0732 9.95257 19.7803 9.65967C19.4874 9.36678 19.0126 9.36678 18.7197 9.65967L17.4455 10.9338L16.1714 9.65967Z"
      fill="currentColor" />
  </g>
</svg>