<svg width="24" height="24" viewBox="0 0 24 24" fill="none" xmlns="http://www.w3.org/2000/svg">
<path fill-rule="evenodd" clip-rule="evenodd" d="M12.4 7.5H11.6C10.5952 7.5 9.93174 7.50117 9.42335 7.5427C8.93248 7.58281 8.71966 7.65295 8.59202 7.71799C8.21569 7.90973 7.90973 8.21569 7.71799 8.59202C7.65295 8.71966 7.58281 8.93248 7.5427 9.42336C7.50117 9.93174 7.5 10.5952 7.5 11.6V12.4C7.5 13.4048 7.50117 14.0683 7.5427 14.5766C7.58281 15.0675 7.65295 15.2803 7.71799 15.408C7.90973 15.7843 8.21569 16.0903 8.59202 16.282C8.71966 16.3471 8.93248 16.4172 9.42335 16.4573C9.93174 16.4988 10.5952 16.5 11.6 16.5H12.4C13.4048 16.5 14.0683 16.4988 14.5766 16.4573C15.0675 16.4172 15.2803 16.3471 15.408 16.282C15.7843 16.0903 16.0903 15.7843 16.282 15.408C16.3471 15.2803 16.4172 15.0675 16.4573 14.5766C16.4988 14.0683 16.5 13.4048 16.5 12.4V11.6C16.5 10.5952 16.4988 9.93174 16.4573 9.42336C16.4172 8.93248 16.3471 8.71966 16.282 8.59202C16.0903 8.21569 15.7843 7.90973 15.408 7.71799C15.2803 7.65295 15.0675 7.58281 14.5766 7.5427C14.0683 7.50117 13.4048 7.5 12.4 7.5ZM6.38148 7.91103C6 8.65972 6 9.63982 6 11.6V12.4C6 14.3602 6 15.3403 6.38148 16.089C6.71703 16.7475 7.25247 17.283 7.91103 17.6185C8.65972 18 9.63982 18 11.6 18H12.4C14.3602 18 15.3403 18 16.089 17.6185C16.7475 17.283 17.283 16.7475 17.6185 16.089C18 15.3403 18 14.3602 18 12.4V11.6C18 9.63982 18 8.65972 17.6185 7.91103C17.283 7.25247 16.7475 6.71703 16.089 6.38148C15.3403 6 14.3602 6 12.4 6H11.6C9.63982 6 8.65972 6 7.91103 6.38148C7.25247 6.71703 6.71703 7.25247 6.38148 7.91103Z" fill="currentColor"/>
</svg>
