<?xml version="1.0" encoding="UTF-8"?>
<svg version="1.1" width="16px" height="8px" viewBox="0 0 16.0 8.0"
  xmlns="http://www.w3.org/2000/svg"
  xmlns:xlink="http://www.w3.org/1999/xlink">
  <defs>
    <clipPath id="i0">
      <path d="M9.3912777,0.590799928 L11.8266759,3.22760605 C12.8648163,4.35160464 14.3915663,5 16,5 L0,5 C0.0295978076,5 0.0591679461,4.99978044 0.0887078805,4.99934241 C1.66434944,4.97597796 3.15405745,4.33102228 4.17311097,3.22783933 L6.60912844,0.590718281 C7.33672461,-0.196938863 8.66373617,-0.196900538 9.3912777,0.590799928 Z"></path>
    </clipPath>
    <clipPath id="i1">
      <path d="M17,-1.99999948 L17,7 L-1,7 L-1,-1.99999948 L17,-1.99999948 Z M9.3912777,0.590799928 C8.66373617,-0.196900538 7.33672461,-0.196938863 6.60912844,0.590718281 L4.17311097,3.22783933 C3.15405745,4.33102228 1.66434944,4.97597796 0.0887078805,4.99934241 C0.0591679461,4.99978044 0.0295978076,5 0,5 L16,5 C14.3915663,5 12.8648163,4.35160464 11.8266759,3.22760605 Z"></path>
    </clipPath>
    <clipPath id="i2">
      <path d="M16,0 L16,2 L0,2 L0,0 L16,0 Z"></path>
    </clipPath>
  </defs>
  <g transform="translate(-239.0 1.0)">
    <g transform="translate(239.0 0.0)">
      <g clip-path="url(#i0)">
        <polygon points="0,1.11022302e-16 16,1.11022302e-16 16,5 0,5 0,1.11022302e-16" stroke="none" fill="#FFFFFF"></polygon>
      </g>
      <g clip-path="url(#i1)">
        <path d="M16,5 L0,5 C0.0295978076,5 0.0591679461,4.99978044 0.0887078805,4.99934241 C1.66434944,4.97597796 3.15405745,4.33102228 4.17311097,3.22783933 L6.60912844,0.590718281 C7.33672461,-0.196938863 8.66373617,-0.196900538 9.3912777,0.590799928 L11.8266759,3.22760605 C12.8648163,4.35160464 14.3915663,5 16,5 Z" stroke="#DFDFDF" stroke-width="2" fill="none" stroke-miterlimit="5"></path>
      </g>
      <g transform="translate(0.0 5.0)">
        <g clip-path="url(#i2)">
          <polygon points="0,0 16,0 16,2 0,2 0,0" stroke="none" fill="#FFFFFF"></polygon>
        </g>
      </g>
    </g>
  </g>
</svg>
