<svg width="10" height="10" viewBox="0 0 10 10" fill="none" xmlns="http://www.w3.org/2000/svg">
  <path id="vf-close-v2"
    d="M9.74785 1.31915C10.0496 1.01737 10.0496 0.528102 9.74785 0.226329C9.44607 -0.0754433 8.9568 -0.0754431 8.65503 0.22633L5.26629 3.61507C5.12438 3.75698 4.8943 3.75698 4.75239 3.61507L1.36785 0.230531C1.06376 -0.0735626 0.570729 -0.0735623 0.266636 0.230531L0.22807 0.269097C-0.0760235 0.57319 -0.0760232 1.06622 0.22807 1.37032L3.61261 4.75485C3.75452 4.89676 3.75452 5.12684 3.61261 5.26875L0.242553 8.63881C-0.0592196 8.94058 -0.0592194 9.42985 0.242554 9.73162C0.544326 10.0334 1.0336 10.0334 1.33537 9.73162L4.70542 6.36157C4.84733 6.21966 5.07741 6.21966 5.21932 6.36157L8.63214 9.77439C8.93624 10.0785 9.42927 10.0785 9.73336 9.77439L9.77193 9.73582C10.076 9.43173 10.076 8.9387 9.77193 8.63461L6.35911 5.22179C6.2172 5.07987 6.2172 4.84979 6.35911 4.70788L9.74785 1.31915Z"
    fill="currentColor" />
</svg>