<svg width="16" height="16" viewBox="0 0 16 16" fill="currentColor" xmlns="http://www.w3.org/2000/svg">
<path fill-rule="evenodd" clip-rule="evenodd" d="M3.78099 9.25C3.78099 8.83579 4.11678 8.5 4.53099 8.5H8.38349C8.79771 8.5 9.13349 8.83579 9.13349 9.25C9.13349 9.66421 8.79771 10 8.38349 10H4.53099C4.11678 10 3.78099 9.66421 3.78099 9.25Z" fill="currentColor"/>
<path fill-rule="evenodd" clip-rule="evenodd" d="M5.12 5.01883C5.22022 4.70951 5.50834 4.5 5.83348 4.5H7.09349C7.41864 4.5 7.70676 4.70951 7.80698 5.01883L9.42698 10.0188C9.55465 10.4129 9.33871 10.8358 8.94466 10.9635C8.55062 11.0912 8.12768 10.8752 8.00001 10.4812L6.54811 6H6.37887L4.92697 10.4812C4.7993 10.8752 4.37636 11.0912 3.98232 10.9635C3.58827 10.8358 3.37233 10.4129 3.5 10.0188L5.12 5.01883Z" fill="currentColor"/>
<path fill-rule="evenodd" clip-rule="evenodd" d="M11.4635 4.5C11.8777 4.5 12.2135 4.83579 12.2135 5.25V10.25C12.2135 10.6642 11.8777 11 11.4635 11C11.0493 11 10.7135 10.6642 10.7135 10.25V5.25C10.7135 4.83579 11.0493 4.5 11.4635 4.5Z" fill="currentColor"/>
<path fill-rule="evenodd" clip-rule="evenodd" d="M11.5556 1.5H4.44444C2.81827 1.5 1.5 2.81827 1.5 4.44444V10.5556C1.5 12.1817 2.81827 13.5 4.44444 13.5H11.5556C13.1817 13.5 14.5 12.1817 14.5 10.5556V4.44444C14.5 2.81827 13.1817 1.5 11.5556 1.5ZM4.44444 0H11.5556C14.0102 0 16 1.98985 16 4.44444V10.5556C16 13.0102 14.0102 15 11.5556 15H4.44444C1.98985 15 0 13.0102 0 10.5556V4.44444C0 1.98985 1.98985 0 4.44444 0Z" fill="currentColor"/>
</svg>
