<svg width="24" height="24" viewBox="0 0 24 24" fill="currentColor" xmlns="http://www.w3.org/2000/svg">
<path fillRule="evenodd" clipRule="evenodd" d="M18.7221 7.16573C19.0426 7.42541 19.0933 7.89753 18.8354 8.22023L11.6544 16.7202C11.5259 16.881 11.3373 16.9814 11.133 16.9977C10.9287 17.014 10.7267 16.9448 10.5747 16.8065L6.25385 12.7694C5.92484 12.406 5.92484 12.0174 6.20065 11.71C6.47647 11.4027 6.91512 11.4027 7.25268 11.6565L9.81794 14.096C10.3669 14.5956 10.6631 14.8502 10.9667 14.8502C11.2702 14.8502 11.5135 14.504 11.9773 13.9236L17.6749 7.27982C17.9327 6.95712 18.4016 6.90604 18.7221 7.16573Z" fill="currentColor"/>
</svg>
