<svg width="25" height="25" viewBox="0 0 25 25" fill="none" xmlns="http://www.w3.org/2000/svg">
<g id="Icon/Medium/Document-URL">
<g id="Union">
<path d="M16.0346 11.2675C14.8546 10.0874 12.9566 10.0397 11.7188 11.159C11.7096 11.1673 11.7006 11.1759 11.6919 11.1846L11.1299 11.7457C10.8368 12.0384 10.8364 12.5132 11.1291 12.8064C11.4218 13.0995 11.8967 13.0998 12.1898 12.8072L12.7374 12.2604C13.3827 11.6887 14.363 11.7171 14.9739 12.3281C15.5848 12.939 15.6134 13.919 15.042 14.5643L14.4949 15.1107C14.2018 15.4033 14.2014 15.8782 14.4941 16.1713C14.7867 16.4644 15.2616 16.4648 15.5547 16.1721L16.1167 15.611C16.1257 15.602 16.1345 15.5928 16.143 15.5833C17.2623 14.3455 17.2147 12.4475 16.0346 11.2675Z" fill="#3E4852"/>
<path d="M14.4345 13.9273C14.7274 13.6344 14.7274 13.1595 14.4345 12.8666C14.1416 12.5737 13.6667 12.5737 13.3738 12.8666L10.5674 15.673C10.2746 15.9659 10.2746 16.4408 10.5674 16.7336C10.8603 17.0265 11.3352 17.0265 11.6281 16.7336L14.4345 13.9273Z" fill="#3E4852"/>
<path d="M10.5073 14.4896C10.8004 14.1969 10.8007 13.7221 10.508 13.429C10.2154 13.1358 9.7405 13.1355 9.44739 13.4282L8.88544 13.9893C8.87642 13.9983 8.86763 14.0075 8.85908 14.017C7.73978 15.2548 7.78747 17.1528 8.96751 18.3328C10.1476 19.5129 12.0455 19.5605 13.2834 18.4412C13.2925 18.4329 13.3015 18.4244 13.3103 18.4157L13.8722 17.8546C14.1653 17.5619 14.1657 17.087 13.873 16.7939C13.5803 16.5008 13.1055 16.5004 12.8123 16.7931L12.2648 17.3399C11.6195 17.9116 10.6392 17.8831 10.0282 17.2721C9.4173 16.6613 9.38872 15.6812 9.96009 15.036L10.5073 14.4896Z" fill="#3E4852"/>
<path fill-rule="evenodd" clip-rule="evenodd" d="M14.7496 2.49994C15.4961 2.49994 16.213 2.79445 16.7424 3.31985L19.6713 6.22633C20.2009 6.75181 20.5 7.46597 20.5 8.21205V15.8048C20.5 17.1724 20.5 18.2747 20.3835 19.1417C20.2625 20.0418 20.0036 20.7997 19.4017 21.4016C18.7997 22.0035 18.0419 22.2624 17.1418 22.3834C16.2748 22.5 15.1725 22.5 13.8049 22.4999H11.1951C9.82754 22.5 8.72522 22.5 7.85825 22.3834C6.95814 22.2624 6.20027 22.0035 5.59835 21.4016C4.99644 20.7997 4.73754 20.0418 4.61653 19.1417C4.49997 18.2747 4.49998 17.1724 4.5 15.8048L4.5 9.19508C4.49998 7.8275 4.49997 6.72519 4.61653 5.85823C4.73754 4.95812 4.99643 4.20025 5.59835 3.59834C6.20026 2.99642 6.95813 2.73752 7.85823 2.6165C8.72519 2.49994 9.82751 2.49995 11.1951 2.49996L14.7496 2.49994ZM14.7496 3.99994L14.5 3.99994V4.25001C14.5 5.21402 14.5016 5.86157 14.5665 6.34461C14.6286 6.80607 14.7358 7.00357 14.8661 7.13388C14.9964 7.2642 15.1939 7.37142 15.6554 7.43347C16.1384 7.49841 16.786 7.5 17.75 7.5H18.7859C18.7367 7.4254 18.6795 7.35536 18.6149 7.29122L15.6858 4.38458C15.4384 4.139 15.1016 3.99994 14.7496 3.99994ZM11.25 3.99996L13 3.99995L13 4.30201C13 5.20049 13 5.9497 13.0799 6.54449C13.1643 7.17228 13.35 7.73908 13.8055 8.19455C14.2609 8.65001 14.8277 8.83569 15.4555 8.92009C16.0503 9.00005 16.7995 9.00003 17.698 9H19L19 15.7499C19 17.1854 18.9984 18.1865 18.8969 18.9418C18.7982 19.6756 18.6178 20.0642 18.341 20.3409C18.0642 20.6177 17.6757 20.7981 16.9419 20.8968C16.1865 20.9983 15.1854 20.9999 13.75 20.9999H11.25C9.81459 20.9999 8.81347 20.9983 8.05812 20.8968C7.32435 20.7981 6.93578 20.6177 6.65901 20.3409C6.38225 20.0642 6.2018 19.6756 6.10315 18.9418C6.0016 18.1865 6 17.1854 6 15.7499L6 9.24996C6 7.81455 6.0016 6.81344 6.10315 6.0581C6.2018 5.32433 6.38225 4.93576 6.65901 4.65899C6.93577 4.38223 7.32434 4.20178 8.05811 4.10313C8.81346 4.00157 9.81456 3.99997 11.25 3.99996Z" fill="#3E4852"/>
</g>
</g>
</svg>
