<svg width="25" height="25" viewBox="0 0 25 25" fill="none" xmlns="http://www.w3.org/2000/svg">
<g id="Icon/Medium/Document-PDF">
<path id="Icon" fill-rule="evenodd" clip-rule="evenodd" d="M14.5 4L14.7496 4C15.1016 4 15.4384 4.13906 15.6858 4.38464L18.6149 7.29128C18.6795 7.35542 18.7367 7.42546 18.7859 7.50006H17.75C16.786 7.50006 16.1384 7.49847 15.6554 7.43353C15.1939 7.37148 14.9964 7.26426 14.8661 7.13395C14.7358 7.00363 14.6286 6.80613 14.5665 6.34467C14.5016 5.86164 14.5 5.21408 14.5 4.25007V4ZM13 4.00001L11.25 4.00002C9.81456 4.00003 8.81346 4.00163 8.05811 4.10319C7.32434 4.20184 6.93577 4.38229 6.65901 4.65905C6.38225 4.93582 6.2018 5.32439 6.10315 6.05816C6.0016 6.81351 6 7.81461 6 9.25002L6 15.75C6 17.1854 6.00159 18.1865 6.10315 18.9419C6.2018 19.6757 6.38225 20.0642 6.65901 20.341C6.93578 20.6178 7.32435 20.7982 8.05812 20.8969C8.81347 20.9984 9.81459 21 11.25 21H13.75C15.1854 21 16.1865 20.9984 16.9419 20.8969C17.6757 20.7982 18.0642 20.6178 18.341 20.341C18.6178 20.0642 18.7982 19.6757 18.8969 18.9419C18.9984 18.1865 19 17.1854 19 15.75L19 9.00006H17.698C16.7995 9.00009 16.0503 9.00012 15.4555 8.92015C14.8277 8.83575 14.2609 8.65008 13.8055 8.19461C13.35 7.73914 13.1643 7.17234 13.0799 6.54455C13 5.94977 13 5.20055 13 4.30207L13 4.25007V4.00001ZM14.7496 2.5L11.25 2.50002H11.1951C9.82751 2.50001 8.72519 2.5 7.85823 2.61656C6.95813 2.73758 6.20026 2.99648 5.59835 3.5984C4.99643 4.20031 4.73754 4.95818 4.61653 5.85829C4.49997 6.72525 4.49998 7.82756 4.5 9.19514L4.5 15.8049C4.49998 17.1724 4.49997 18.2748 4.61652 19.1418C4.73754 20.0419 4.99643 20.7997 5.59835 21.4016C6.20027 22.0036 6.95814 22.2625 7.85825 22.3835C8.72522 22.5 9.82754 22.5 11.1951 22.5H13.8049C15.1725 22.5 16.2748 22.5 17.1418 22.3835C18.0419 22.2625 18.7997 22.0036 19.4017 21.4017C20.0036 20.7997 20.2625 20.0419 20.3835 19.1418C20.5 18.2748 20.5 17.1725 20.5 15.8049V8.21211C20.5 7.46603 20.2009 6.75187 19.6713 6.22639L16.7424 3.31991C16.213 2.79451 15.4961 2.5 14.7496 2.5ZM11.3638 18.8175C11.4628 18.6231 11.4899 18.3849 11.4972 18.0001H13.5028C13.5101 18.3849 13.5372 18.6231 13.6362 18.8175C13.7561 19.0527 13.9473 19.244 14.1825 19.3638C14.4499 19.5 14.7999 19.5 15.5 19.5C16.2001 19.5 16.5501 19.5 16.8175 19.3638C17.0527 19.244 17.2439 19.0527 17.3638 18.8175C17.5 18.5501 17.5 18.2001 17.5 17.5001C17.5 16.8 17.5 16.45 17.3638 16.1826C17.2439 15.9474 17.0527 15.7561 16.8175 15.6363C16.5818 15.5162 16.282 15.502 15.7349 15.5003L14.4485 13.5707C14.5 13.3295 14.5 13.0063 14.5 12.5001C14.5 11.8 14.5 11.45 14.3638 11.1826C14.2439 10.9474 14.0527 10.7561 13.8175 10.6363C13.5501 10.5001 13.2001 10.5001 12.5 10.5001C11.8 10.5001 11.4499 10.5001 11.1825 10.6363C10.9473 10.7561 10.7561 10.9474 10.6362 11.1826C10.5 11.45 10.5 11.8 10.5 12.5001C10.5 13.0063 10.5 13.3295 10.5515 13.5707L9.26515 15.5003C8.71804 15.502 8.41818 15.5162 8.18252 15.6363C7.94731 15.7561 7.75608 15.9474 7.63624 16.1826C7.5 16.45 7.5 16.8 7.5 17.5001C7.5 18.2001 7.5 18.5501 7.63624 18.8175C7.75609 19.0527 7.94731 19.244 8.18252 19.3638C8.44991 19.5 8.79994 19.5 9.5 19.5C10.2001 19.5 10.5501 19.5 10.8175 19.3638C11.0527 19.244 11.2439 19.0527 11.3638 18.8175ZM13.257 14.4876C13.0593 14.5 12.8151 14.5 12.5 14.5C12.1849 14.5 11.9407 14.5 11.743 14.4876L10.9328 15.703C11.1153 15.822 11.2642 15.9871 11.3638 16.1826C11.4108 16.2749 11.4416 16.3771 11.4618 16.5001H13.5382C13.5584 16.377 13.5892 16.2749 13.6362 16.1826C13.7358 15.9871 13.8847 15.822 14.0672 15.703L13.257 14.4876ZM13 12.5001C13 12.6785 13 12.8188 12.9981 12.9401L12.997 12.997L12.94 12.9981C12.8188 13 12.6784 13 12.5 13C12.3216 13 12.1812 13 12.06 12.9981L12.003 12.997L12.0019 12.9401C12 12.8188 12 12.6785 12 12.5001C12 12.3216 12 12.1813 12.0019 12.06L12.003 12.0031L12.06 12.002C12.1812 12.0001 12.3216 12.0001 12.5 12.0001C12.6784 12.0001 12.8188 12.0001 12.94 12.002L12.997 12.0031L12.9981 12.06C13 12.1813 13 12.3216 13 12.5001ZM9.99805 17.9401C9.99996 17.8188 10 17.6785 10 17.5001C10 17.3216 9.99996 17.1813 9.99805 17.06L9.99697 17.0031L9.94002 17.002C9.81878 17.0001 9.67844 17.0001 9.5 17.0001C9.32156 17.0001 9.18122 17.0001 9.05998 17.002L9.00302 17.0031L9.00194 17.06C9.00004 17.1813 9 17.3216 9 17.5001C9 17.6785 9.00004 17.8188 9.00195 17.9401L9.00303 17.997L9.05998 17.9981C9.18122 18 9.32156 18 9.5 18C9.67844 18 9.81878 18 9.94002 17.9981L9.99697 17.997L9.99805 17.9401ZM16 17.5001C16 17.6785 16 17.8188 15.9981 17.9401L15.997 17.997L15.94 17.9981C15.8188 18 15.6784 18 15.5 18C15.3216 18 15.1812 18 15.06 17.9981L15.003 17.997L15.0019 17.9401C15 17.8188 15 17.6785 15 17.5001C15 17.3216 15 17.1813 15.0019 17.06L15.003 17.0031L15.06 17.002C15.1812 17.0001 15.3216 17.0001 15.5 17.0001C15.6784 17.0001 15.8188 17.0001 15.94 17.002L15.997 17.0031L15.9981 17.06C16 17.1813 16 17.3216 16 17.5001Z" fill="#3E4852"/>
</g>
</svg>
