<svg width="24" height="24" viewBox="0 0 24 24" fill="currentColor" xmlns="http://www.w3.org/2000/svg">
<path fillRule="evenodd" clipRule="evenodd" d="M5.58813 4.73284C6.56525 3.75572 8.14926 3.75572 9.12638 4.73284L10.154 5.76138C10.9867 6.59424 10.9329 7.90132 10.0796 8.7547L9.40301 9.43125C9.74435 10.1875 10.2135 10.9406 10.8016 11.6559L17.3609 5.09222C17.6537 4.79923 18.1286 4.79907 18.4216 5.09187C18.7145 5.38466 18.7147 5.85954 18.4219 6.15253L5.28051 19.3027C4.98771 19.5957 4.51284 19.5958 4.21985 19.303C3.92686 19.0103 3.9267 18.5354 4.21949 18.2424L7.43981 15.0199C5.63516 12.9699 4.47621 10.6612 4.0656 8.48802C3.84725 7.33075 4.18196 6.13901 5.01691 5.30405L5.58813 4.73284ZM8.50247 13.9566L9.73682 12.7214C9.00562 11.8528 8.42017 10.9206 8.00007 9.96822L7.99962 9.96719C7.75912 9.41971 7.90783 8.80512 8.30139 8.41156L9.01891 7.69404C9.34117 7.37178 9.28731 7.01596 9.09338 6.82204L8.06572 5.7935C7.67437 5.40239 7.04005 5.40224 6.64879 5.7935L6.07757 6.36472C5.6142 6.82809 5.40751 7.50955 5.53952 8.20953M8.50247 13.9566C6.8876 12.0993 5.88888 10.0583 5.53952 8.20953L8.50247 13.9566ZM15.3202 13.8473C16.126 13.0402 17.4335 13.0408 18.2395 13.8468L19.2672 14.8745C20.2436 15.8522 20.2445 17.4363 19.2672 18.4136L18.6968 18.984C17.8619 19.8189 16.6703 20.1537 15.5131 19.9353C13.6473 19.5821 11.6809 18.6802 9.86769 17.2958C9.53847 17.0444 9.47535 16.5738 9.72672 16.2446C9.97809 15.9153 10.4487 15.8522 10.778 16.1036C12.4322 17.3666 14.186 18.1574 15.7912 18.4613C16.4912 18.5934 17.1727 18.3867 17.6362 17.9233L18.2065 17.353C18.5977 16.9618 18.5981 16.3273 18.2062 15.9348L17.1788 14.9075C16.9581 14.6868 16.601 14.6874 16.3818 14.907L15.5905 15.6992C15.1979 16.0918 14.5827 16.2435 14.0325 16.0008C13.4194 15.73 12.8135 15.392 12.2284 14.9936C11.8861 14.7604 11.7976 14.2939 12.0307 13.9515C12.2639 13.6091 12.7304 13.5206 13.0728 13.7538C13.5642 14.0884 14.0672 14.371 14.5702 14.5981L15.3202 13.8473Z" fill="currentColor"/>
</svg>
