<svg width="24" height="24" viewBox="0 0 24 24" fill="none" xmlns="http://www.w3.org/2000/svg">
  <path fill-rule="evenodd" clip-rule="evenodd" d="M5.75 5C5.75 4.58579 5.41421 4.25 5 4.25C4.58579 4.25 4.25 4.58579 4.25 5V9.308C4.25 9.72221 4.58579 10.058 5 10.058H5.52062C5.53202 10.0583 5.5434 10.0583 5.55476 10.058H9.308C9.72221 10.058 10.058 9.72221 10.058 9.308C10.058 8.89379 9.72221 8.558 9.308 8.558H6.7837C7.90235 6.86511 9.82106 5.75 12 5.75C15.4518 5.75 18.25 8.54821 18.25 12C18.25 15.4518 15.4518 18.25 12 18.25C9.40138 18.25 7.17289 16.664 6.23022 14.4033C6.0708 14.021 5.63164 13.8404 5.24934 13.9998C4.86703 14.1592 4.68635 14.5983 4.84577 14.9807C6.0131 17.78 8.77461 19.75 12 19.75C16.2802 19.75 19.75 16.2802 19.75 12C19.75 7.71979 16.2802 4.25 12 4.25C9.43283 4.25 7.15952 5.49797 5.75 7.41882V5Z" fill="white" fill-opacity="0.8"/>
</svg>
