<svg viewBox="0 0 24 24" fill="none" xmlns="http://www.w3.org/2000/svg">
  <g transform="scale(1.5)" transform-origin="center">
    <path fill-rule="evenodd" clip-rule="evenodd"
      d="M17.4489 6.04082C17.1346 5.77108 16.6611 5.80725 16.3914 6.12159C16.1216 6.43594 16.1578 6.90944 16.4721 7.17917C17.6708 8.20778 18.5 9.96132 18.5 12.0032C18.5 14.0421 17.6723 15.7945 16.4753 16.824C16.1613 17.0941 16.1256 17.5677 16.3957 17.8817C16.6658 18.1957 17.1394 18.2314 17.4534 17.9613C19.016 16.6174 20 14.4319 20 12.0032C20 9.57152 19.0144 7.38412 17.4489 6.04082ZM9.87746 6.28049C10.861 5.44627 12.3684 6.14733 12.3684 7.43503V16.567C12.3684 17.8551 10.8614 18.5554 9.87746 17.7215L7.05067 15.3267H5.51316C4.67768 15.3267 4 14.649 4 13.8135V10.1885C4 9.35302 4.67768 8.67534 5.51316 8.67534H7.05067L9.87746 6.28049ZM10.853 7.42037C10.853 7.42037 10.85 7.42247 10.8477 7.42447L7.81046 9.99759C7.675 10.1124 7.50321 10.1753 7.32566 10.1753H5.51316C5.51015 10.1753 5.5085 10.176 5.5085 10.176C5.5085 10.176 5.50574 10.1775 5.50394 10.1793C5.50213 10.1811 5.5007 10.1838 5.5007 10.1838C5.5007 10.1838 5.5 10.1855 5.5 10.1885V13.8135C5.5 13.8165 5.5007 13.8182 5.5007 13.8182C5.5007 13.8182 5.50213 13.8209 5.50394 13.8227C5.50574 13.8245 5.50849 13.826 5.50849 13.826C5.50849 13.826 5.51013 13.8267 5.51316 13.8267H7.32566C7.50321 13.8267 7.675 13.8896 7.81046 14.0044L10.8471 16.577C10.8498 16.5793 10.8532 16.5817 10.8532 16.5817C10.8532 16.5817 10.8574 16.5808 10.8609 16.5792C10.8645 16.5775 10.868 16.5747 10.868 16.5747C10.868 16.5747 10.8684 16.5707 10.8684 16.567V7.43503C10.8684 7.43141 10.868 7.42747 10.868 7.42747C10.868 7.42747 10.8645 7.42458 10.8607 7.42283C10.8573 7.42125 10.853 7.42037 10.853 7.42037ZM14.0645 8.56574C14.285 8.21513 14.748 8.10971 15.0986 8.33027C16.2391 9.04769 16.9474 10.457 16.9474 12.0048C16.9474 13.5515 16.2395 14.9628 15.0951 15.6738C14.7433 15.8924 14.2808 15.7844 14.0622 15.4326C13.8436 15.0808 13.9516 14.6183 14.3035 14.3997C14.9326 14.0088 15.4474 13.1275 15.4474 12.0048C15.4474 10.883 14.9331 9.99825 14.2999 9.59993C13.9493 9.37937 13.8439 8.91634 14.0645 8.56574Z"
      fill="currentColor" />
  </g>
</svg>