<svg width="24" height="24" viewBox="0 0 24 24" fill="currentColor" xmlns="http://www.w3.org/2000/svg">
<path fillRule="evenodd" clipRule="evenodd" d="M11.75 8C11.3358 8 11 8.33578 11 8.75V15.25C11 15.6642 11.3358 16 11.75 16C12.1642 16 12.5 15.6642 12.5 15.25V8.75C12.5 8.33578 12.1642 8 11.75 8ZM8 5.75C8 5.33578 8.33582 5 8.75 5C9.16418 5 9.5 5.33578 9.5 5.75V18.25C9.5 18.6642 9.16418 19 8.75 19C8.33582 19 8 18.6642 8 18.25V5.75ZM5 9.75C5 9.33578 5.33582 9 5.75 9C6.16418 9 6.5 9.33578 6.5 9.75V14.25C6.5 14.6642 6.16418 15 5.75 15C5.33582 15 5 14.6642 5 14.25V9.75ZM14 7.75C14 7.33578 14.3358 7 14.75 7C15.1642 7 15.5 7.33578 15.5 7.75V16.25C15.5 16.6642 15.1642 17 14.75 17C14.3358 17 14 16.6642 14 16.25V7.75ZM17.75 10C17.3358 10 17 10.3358 17 10.75V13.25C17 13.6642 17.3358 14 17.75 14C18.1642 14 18.5 13.6642 18.5 13.25V10.75C18.5 10.3358 18.1642 10 17.75 10Z" fill="currentColor"/>
</svg>
